<svg width="172" height="162" viewBox="0 0 172 162" fill="none" xmlns="http://www.w3.org/2000/svg">
<rect opacity="0.3" width="100.179" height="100.179" rx="20" transform="matrix(0.705841 -0.708371 0.705841 0.708371 15 91.0359)" fill="#DFE1EB"/>
<ellipse cx="2" cy="6.73471" rx="2" ry="2.00717" fill="#DFE1EB"/>
<ellipse cx="14" cy="6.73471" rx="2" ry="2.00717" fill="#DFE1EB"/>
<ellipse cx="26" cy="6.73471" rx="2" ry="2.00717" fill="#DFE1EB"/>
<ellipse cx="2" cy="18.7778" rx="2" ry="2.00717" fill="#DFE1EB"/>
<ellipse cx="14" cy="18.7778" rx="2" ry="2.00717" fill="#DFE1EB"/>
<ellipse cx="26" cy="18.7778" rx="2" ry="2.00717" fill="#DFE1EB"/>
<ellipse cx="38" cy="6.73471" rx="2" ry="2.00717" fill="#DFE1EB"/>
<ellipse cx="50" cy="6.73471" rx="2" ry="2.00717" fill="#DFE1EB"/>
<ellipse cx="62" cy="6.73471" rx="2" ry="2.00717" fill="#DFE1EB"/>
<ellipse cx="38" cy="18.7778" rx="2" ry="2.00717" fill="#DFE1EB"/>
<ellipse cx="50" cy="18.7778" rx="2" ry="2.00717" fill="#DFE1EB"/>
<ellipse cx="62" cy="18.7778" rx="2" ry="2.00717" fill="#DFE1EB"/>
<ellipse cx="74" cy="6.73471" rx="2" ry="2.00717" fill="#DFE1EB"/>
<ellipse cx="86" cy="6.73471" rx="2" ry="2.00717" fill="#DFE1EB"/>
<ellipse cx="98" cy="6.73471" rx="2" ry="2.00717" fill="#DFE1EB"/>
<ellipse cx="110" cy="6.73471" rx="2" ry="2.00717" fill="#DFE1EB"/>
<ellipse cx="122" cy="6.73471" rx="2" ry="2.00717" fill="#DFE1EB"/>
<ellipse cx="134" cy="6.73471" rx="2" ry="2.00717" fill="#DFE1EB"/>
<ellipse cx="110" cy="18.7778" rx="2" ry="2.00717" fill="#DFE1EB"/>
<ellipse cx="122" cy="18.7778" rx="2" ry="2.00717" fill="#DFE1EB"/>
<ellipse cx="134" cy="18.7778" rx="2" ry="2.00717" fill="#DFE1EB"/>
<ellipse cx="146" cy="6.73471" rx="2" ry="2.00717" fill="#DFE1EB"/>
<ellipse cx="158" cy="6.73471" rx="2" ry="2.00717" fill="#DFE1EB"/>
<ellipse cx="170" cy="6.73471" rx="2" ry="2.00717" fill="#DFE1EB"/>
<ellipse cx="146" cy="18.7778" rx="2" ry="2.00717" fill="#DFE1EB"/>
<ellipse cx="158" cy="18.7778" rx="2" ry="2.00717" fill="#DFE1EB"/>
<ellipse cx="170" cy="18.7778" rx="2" ry="2.00717" fill="#DFE1EB"/>
<ellipse rx="2" ry="2.00717" transform="matrix(1 0 0 -1 2 134.19)" fill="#DFE1EB"/>
<ellipse rx="2" ry="2.00717" transform="matrix(1 0 0 -1 14 134.19)" fill="#DFE1EB"/>
<ellipse rx="2" ry="2.00717" transform="matrix(1 0 0 -1 26 134.19)" fill="#DFE1EB"/>
<ellipse rx="2" ry="2.00717" transform="matrix(1 0 0 -1 2 122.147)" fill="#DFE1EB"/>
<ellipse rx="2" ry="2.00717" transform="matrix(1 0 0 -1 14 122.147)" fill="#DFE1EB"/>
<ellipse rx="2" ry="2.00717" transform="matrix(1 0 0 -1 26 122.147)" fill="#DFE1EB"/>
<ellipse rx="2" ry="2.00717" transform="matrix(1 0 0 -1 38 134.19)" fill="#DFE1EB"/>
<ellipse rx="2" ry="2.00717" transform="matrix(1 0 0 -1 50 134.19)" fill="#DFE1EB"/>
<ellipse rx="2" ry="2.00717" transform="matrix(1 0 0 -1 62 134.19)" fill="#DFE1EB"/>
<ellipse rx="2" ry="2.00717" transform="matrix(1 0 0 -1 38 122.147)" fill="#DFE1EB"/>
<ellipse rx="2" ry="2.00717" transform="matrix(1 0 0 -1 50 122.147)" fill="#DFE1EB"/>
<ellipse rx="2" ry="2.00717" transform="matrix(1 0 0 -1 62 122.147)" fill="#DFE1EB"/>
<ellipse rx="2" ry="2.00717" transform="matrix(1 0 0 -1 74 134.19)" fill="#DFE1EB"/>
<ellipse rx="2" ry="2.00717" transform="matrix(1 0 0 -1 86 134.19)" fill="#DFE1EB"/>
<ellipse rx="2" ry="2.00717" transform="matrix(1 0 0 -1 98 134.19)" fill="#DFE1EB"/>
<ellipse rx="2" ry="2.00717" transform="matrix(1 0 0 -1 110 134.19)" fill="#DFE1EB"/>
<ellipse rx="2" ry="2.00717" transform="matrix(1 0 0 -1 122 134.19)" fill="#DFE1EB"/>
<ellipse rx="2" ry="2.00717" transform="matrix(1 0 0 -1 134 134.19)" fill="#DFE1EB"/>
<ellipse rx="2" ry="2.00717" transform="matrix(1 0 0 -1 110 122.147)" fill="#DFE1EB"/>
<ellipse rx="2" ry="2.00717" transform="matrix(1 0 0 -1 122 122.147)" fill="#DFE1EB"/>
<ellipse rx="2" ry="2.00717" transform="matrix(1 0 0 -1 134 122.147)" fill="#DFE1EB"/>
<ellipse rx="2" ry="2.00717" transform="matrix(1 0 0 -1 146 134.19)" fill="#DFE1EB"/>
<ellipse rx="2" ry="2.00717" transform="matrix(1 0 0 -1 158 134.19)" fill="#DFE1EB"/>
<ellipse rx="2" ry="2.00717" transform="matrix(1 0 0 -1 170 134.19)" fill="#DFE1EB"/>
<ellipse rx="2" ry="2.00717" transform="matrix(1 0 0 -1 146 122.147)" fill="#DFE1EB"/>
<ellipse rx="2" ry="2.00717" transform="matrix(1 0 0 -1 158 122.147)" fill="#DFE1EB"/>
<ellipse rx="2" ry="2.00717" transform="matrix(1 0 0 -1 170 122.147)" fill="#DFE1EB"/>
<rect x="0.705841" width="99.1794" height="99.1794" rx="19.5" transform="matrix(0.705841 -0.708371 0.705841 0.708371 15.2076 71.4641)" stroke="#9FA2B4"/>
<path d="M81.666 51.401C83.5888 48.0588 88.4112 48.0588 90.334 51.401L107.67 81.5354C109.588 84.8688 107.182 89.0287 103.336 89.0287H68.664C64.8185 89.0287 62.4124 84.8688 64.33 81.5354L81.666 51.401Z" fill="#F26522"/>
<rect width="5" height="12.5448" rx="2.5" transform="matrix(1 0 0 -1 83.5 76.4839)" fill="white"/>
<rect width="5" height="5.01792" rx="2.5" transform="matrix(1 0 0 -1 83.5005 84.0107)" fill="white"/>
</svg>
