<?xml version="1.0" encoding="utf-8"?>
<svg version="1.1" id="Layer_1" xmlns="http://www.w3.org/2000/svg" xmlns:xlink="http://www.w3.org/1999/xlink" x="0px" y="0px"
	 viewBox="0 0 180 58" style="enable-background:new 0 0 180 58;" xml:space="preserve">
<style type="text/css">
	.st0{fill:#F26522;}
	.st1{fill:#747573;}
</style>
<g>
	<path class="st0" d="M176.7,24.5c-0.1,0.3-0.1,0.6-0.2,0.8c-0.3,1.1-1,1.7-2.1,1.8c-1,0.2-1.9,0.1-2.9-0.1c-0.1,0-0.2-0.1-0.2-0.3
		c0-0.6,0-1.2,0-1.8c-0.1-0.8-0.3-1.7-0.8-2.4c-0.4-0.6-1-0.9-1.8-1c-0.6-0.1-1.1,0-1.7,0.2c-0.6,0.2-1,0.7-1.4,1.2
		c-0.5,0.8-0.7,1.7-0.8,2.6c-0.3,1.5-0.3,3-0.2,4.4c0.1,1.4,0.2,2.7,0.9,3.9c0.5,0.9,1.3,1.5,2.4,1.8c1.3,0.3,2.6,0,3.8-0.5
		c0.8-0.4,1.6-0.8,2.3-1.4c0.1-0.1,0.1,0,0.2,0c0.6,0.4,1,1,1.4,1.5c0.3,0.5,0.6,1,0.7,1.5c0,0.2,0,0.3-0.1,0.4
		c-0.6,0.6-1.3,1.1-2.1,1.6c-0.8,0.5-1.6,0.8-2.5,1.1c-0.8,0.2-1.5,0.4-2.3,0.5c-0.8,0.1-1.5,0.1-2.3,0c-1-0.1-1.9-0.3-2.8-0.7
		c-0.9-0.4-1.6-0.8-2.3-1.5c-0.7-0.6-1.3-1.4-1.7-2.2c-0.7-1.2-1.1-2.5-1.3-3.9c-0.1-0.7-0.2-1.4-0.2-2c0-0.6-0.1-1.3,0-1.9
		c0-1.1,0.2-2.2,0.4-3.2c0.2-1,0.5-1.9,1-2.8c0.4-0.8,0.9-1.5,1.5-2.2c0.8-0.8,1.7-1.5,2.7-2c0.8-0.4,1.7-0.6,2.6-0.8
		c0.7-0.1,1.5-0.1,2.2-0.1c1.1,0.1,2.1,0.3,3.1,0.7c1,0.4,1.8,0.9,2.5,1.6c0.9,0.9,1.6,2.1,1.8,3.4c0.1,0.3,0.1,0.7,0.2,1
		C176.7,24.1,176.7,24.3,176.7,24.5z"/>
	<path class="st1" d="M74.8,52.4c-0.3-0.1-0.6-0.1-0.8-0.3c-0.7-0.4-1.1-1-1.1-1.8c0-1.4,0-2.8,0-4.2c0-0.2,0.1-0.3,0.3-0.3
		c0.3,0,0.6,0,0.7,0.3c0,0.1,0,0.2,0,0.3c0,1.2,0,2.3,0,3.5c0,0.3,0.1,0.6,0.2,0.9c0.3,0.5,0.9,0.7,1.4,0.6c0.8-0.1,1.1-0.6,1.1-1.4
		c0-1.3,0-2.6,0-3.9c0-0.2,0.1-0.3,0.3-0.3c0.7-0.1,0.8,0,0.8,0.7c0,1.2,0,2.3,0,3.5c0,0.5-0.1,1-0.4,1.5c-0.3,0.5-0.8,0.7-1.3,0.8
		c-0.1,0-0.1,0-0.2,0.1C75.3,52.4,75.1,52.4,74.8,52.4z"/>
	<path class="st1" d="M107.3,52.4c-0.2-0.1-0.4-0.1-0.6-0.2c-0.8-0.3-1.2-0.9-1.3-1.8c-0.1-1.5,0-2.9-0.1-4.4c0-0.1,0-0.2,0.1-0.2
		c0.6-0.1,0.9,0.1,0.9,0.7c0,1.2,0,2.4,0,3.6c0,0.5,0.2,1,0.7,1.2c0.8,0.3,1.8,0,1.9-1.2c0.1-1.4,0-2.7,0-4.1c0-0.2,0.1-0.3,0.3-0.3
		c0.7,0,0.7,0,0.7,0.7c0,1.2,0,2.4,0,3.6c0,1.1-0.6,1.9-1.6,2.1c-0.1,0-0.2,0-0.3,0.1C107.8,52.4,107.6,52.4,107.3,52.4z"/>
	<path class="st1" d="M134.7,52.4c-0.2-0.1-0.4-0.1-0.6-0.1c-0.4-0.1-0.8-0.3-1.1-0.5c-0.1,0-0.1-0.1-0.1-0.2c0-0.1,0-0.1,0.1-0.2
		c0.2-0.5,0.3-0.5,0.7-0.3c0.5,0.3,1.1,0.5,1.7,0.4c0.4,0,0.7-0.1,0.8-0.5c0.1-0.3,0.1-0.6-0.1-0.8c-0.2-0.2-0.5-0.4-0.8-0.5
		c-0.6-0.3-1.2-0.4-1.7-0.8c-0.5-0.5-0.6-1-0.5-1.6c0.2-0.8,1.1-1.3,1.8-1.3c0.7,0,1.3,0.1,1.9,0.3c0.3,0.1,0.3,0.3,0.2,0.5
		c0,0.1-0.1,0.1-0.1,0.2c-0.1,0.2-0.2,0.2-0.4,0.1c-0.5-0.2-1.1-0.5-1.7-0.3c-0.4,0.1-0.7,0.4-0.7,0.7c0,0.3,0.2,0.6,0.5,0.7
		c0.5,0.2,0.9,0.4,1.4,0.6c0.5,0.2,1,0.6,1.2,1.1c0.3,0.7,0,1.7-0.8,2.1c-0.3,0.2-0.7,0.2-1,0.3C135.2,52.4,134.9,52.4,134.7,52.4z"
		/>
	<path class="st1" d="M89.7,52.4c-0.2-0.1-0.4-0.1-0.7-0.2c-0.4-0.1-0.7-0.3-1.1-0.5c-0.1-0.1-0.2-0.1-0.1-0.2c0,0,0-0.1,0-0.1
		c0.2-0.5,0.3-0.6,0.8-0.3c0.5,0.3,1.1,0.4,1.6,0.4c0.3,0,0.7-0.1,0.8-0.5c0.2-0.3,0.1-0.6-0.1-0.9c-0.3-0.4-0.7-0.5-1.1-0.7
		c-0.4-0.2-0.7-0.3-1.1-0.5c-0.6-0.4-0.8-0.9-0.7-1.5c0.1-0.7,0.5-1.2,1.1-1.4c0.8-0.3,1.7-0.2,2.5,0.1c0.1,0.1,0.4,0,0.4,0.2
		c0,0.3-0.1,0.5-0.3,0.7c-0.1,0.1-0.2,0-0.3,0c-0.5-0.2-1-0.4-1.5-0.4c-0.4,0-0.7,0.2-0.9,0.5c-0.2,0.3-0.2,0.7,0.3,1
		c0.5,0.3,1,0.5,1.5,0.7c0.6,0.3,1.1,0.6,1.3,1.3c0.2,1-0.2,1.9-1.3,2.2c-0.2,0-0.3,0-0.5,0.1C90.2,52.4,90,52.4,89.7,52.4z"/>
	<path class="st1" d="M57.1,52.4c-0.3-0.1-0.6-0.1-0.9-0.3c-0.6-0.4-0.9-1-1.1-1.7c-0.2-0.6-0.1-1.3-0.1-1.9
		c0.1-0.9,0.4-1.7,1.1-2.2c0.3-0.3,0.7-0.4,1.2-0.4c0.6,0,1.1,0,1.6,0.4c0.6,0.4,0.9,0.9,0.8,1.6c0,0.2-0.1,0.3-0.3,0.4
		c-0.2,0.1-0.4,0-0.6,0c-0.1,0,0-0.1,0-0.2c-0.1-0.7-0.5-1.3-1.3-1.2c-0.6,0-1,0.4-1.2,1c-0.2,0.7-0.3,1.3-0.2,2
		c0,0.4,0.1,0.7,0.3,1c0.3,0.6,1,0.9,1.6,0.7c0.4-0.1,0.8-0.3,1.1-0.6c0.1,0,0.1-0.1,0.2,0c0.2,0.1,0.3,0.3,0.4,0.5
		c0.1,0.1,0,0.2-0.1,0.3c-0.5,0.4-1.1,0.7-1.7,0.8c0,0-0.1,0-0.1,0.1C57.6,52.4,57.4,52.4,57.1,52.4z"/>
	<path class="st0" d="M72.3,20.6c1-0.9,2.1-1.7,3.4-2.3c0.9-0.4,1.8-0.7,2.7-0.8c0.9-0.1,1.8,0,2.7,0.2c0.7,0.2,1.3,0.5,1.8,1
		c1.2,1,1.7,2.4,2,3.9c0.1,0.7,0.2,1.5,0.2,2.2c0,3.6,0,7.1,0,10.7c0,1.2,0.2,2.3,0.9,3.4c0.1,0.1,0,0.2,0,0.2
		c-0.8,0.5-1.7,0.9-2.6,1.1c-0.8,0.1-1.5,0.1-2.3-0.1c-0.9-0.3-1.4-0.9-1.6-1.8c-0.1-0.5-0.2-0.9-0.2-1.4c0-3.6,0-7.1,0-10.7
		c0-0.7-0.1-1.4-0.4-2.1c-0.3-0.7-0.9-1.2-1.7-1.3c-1-0.1-1.8,0.3-2.6,0.8c-0.5,0.3-0.9,0.7-1.3,1.1c-0.1,0.1-0.2,0.2-0.2,0.4
		c0,4.8,0,9.7,0,14.5c0,0.3-0.1,0.4-0.3,0.4c-0.3,0-0.7,0.1-1,0.1c-0.8,0.1-1.5,0.1-2.3,0c-0.7,0-1.4-0.1-2.1-0.2
		c-0.1,0-0.1-0.1-0.1-0.2c0-0.1,0-0.1,0-0.2c0-4.7,0-9.3,0-14c0-0.8-0.2-1.5-0.6-2.1c-0.3-0.4-0.8-0.7-1.3-0.7
		c-0.9-0.1-1.7,0.3-2.5,0.7c-0.5,0.3-1,0.7-1.4,1.1c-0.1,0.1-0.2,0.3-0.2,0.5c0,4.9,0,9.7,0,14.6c0,0.2,0,0.3-0.3,0.4
		c-0.4,0-0.7,0.1-1.1,0.1c-0.8,0.1-1.6,0.1-2.3,0c-0.7,0-1.4-0.1-2-0.2c-0.1,0-0.1-0.1-0.1-0.2c0-0.1,0-0.1,0-0.2
		c0-7.1,0-14.3,0-21.4c0-0.4,0.2-0.6,0.6-0.6c0.7,0,1.4,0,2.2,0c1.4,0,2.3,0.8,2.8,2c0.1,0.2,0.1,0.3,0.2,0.5c0,0.2,0.1,0.2,0.2,0.1
		c0.4-0.4,0.8-0.7,1.2-1c1.1-0.8,2.3-1.4,3.7-1.6c1.1-0.2,2.1-0.1,3.1,0.2c1.3,0.4,2.3,1.3,3,2.5C72.2,20.3,72.2,20.5,72.3,20.6z"/>
	<path class="st0" d="M113.6,20.2c0.5-0.4,1-0.7,1.4-1.1c1.2-0.8,2.4-1.3,3.8-1.5c1.2-0.2,2.4-0.2,3.6,0.2c1,0.4,1.8,1,2.4,1.8
		c0.8,1,1.1,2.2,1.3,3.5c0.1,0.7,0.2,1.5,0.2,2.2c0,3.3,0,6.7,0,10c0,1.1,0.2,2.3,0.7,3.3c0.2,0.4,0.2,0.4-0.2,0.6
		c-0.7,0.5-1.5,0.8-2.4,0.9c-0.8,0.1-1.6,0.1-2.4-0.2c-0.6-0.2-1.1-0.7-1.3-1.3c-0.2-0.6-0.3-1.3-0.3-1.9c0-3.6,0-7.3,0-10.9
		c0-0.7-0.1-1.5-0.4-2.2c-0.3-0.6-0.8-0.9-1.5-0.9c-1.5-0.1-2.7,0.5-3.9,1.3c-0.2,0.1-0.3,0.3-0.5,0.4c-0.2,0.2-0.4,0.4-0.4,0.7
		c0,4.8,0,9.6,0,14.4c0,0.4,0,0.4-0.4,0.4c-1.1,0.1-2.1,0.2-3.2,0.2c-0.7,0-1.4-0.1-2.1-0.2c-0.1,0-0.1,0-0.1-0.1c0-0.1,0-0.1,0-0.2
		c0-7.2,0-14.3,0-21.5c0-0.4,0.1-0.5,0.5-0.5c0.7,0,1.4,0,2.2,0c1.3,0,2.4,0.7,2.8,2C113.5,19.8,113.6,20,113.6,20.2z"/>
	<path class="st0" d="M156.9,31.1c0,2.8,0,5.6,0,8.4c0,0.4,0,0.4-0.4,0.4c-1.1,0.1-2.2,0.2-3.3,0.2c-0.7,0-1.4-0.1-2.1-0.2
		c-0.1,0-0.1,0-0.1-0.1c0-0.1,0-0.1,0-0.2c0-5.2,0-10.4,0-15.6c0-0.7-0.2-1.3-0.8-1.7c-0.3-0.2-0.7-0.3-1.1-0.3
		c-0.6,0-0.6,0-0.8-0.6c-0.2-0.7-0.1-1.5-0.1-2.2c0-0.4,0.1-0.8,0.2-1.2c0-0.1,0.1-0.1,0.1-0.1c0.4,0,0.8-0.1,1.3-0.1
		c1-0.1,2-0.1,2.9-0.1c1.4,0,2.5,0.5,3.3,1.7c0.4,0.6,0.6,1.2,0.7,1.9c0.1,0.7,0.1,1.5,0.1,2.2C156.9,26,156.9,28.6,156.9,31.1z"/>
	<path class="st0" d="M153,14.5c-0.8,0-1.6-0.1-2.4-0.4c-0.4-0.1-0.6-0.4-0.7-0.7c-0.2-0.7-0.3-1.4-0.3-2.1c0-0.6,0.1-1.3,0.4-1.9
		c0.1-0.1,0.1-0.2,0.3-0.3c0.7-0.3,1.4-0.4,2.1-0.4c1-0.1,1.9,0.1,2.8,0.3c0.5,0.1,0.8,0.4,0.9,0.9c0.2,0.8,0.2,1.5,0.2,2.3
		c0,0.5-0.2,1-0.3,1.5c-0.1,0.2-0.2,0.3-0.3,0.3C154.9,14.4,154,14.6,153,14.5z"/>
	<path class="st1" d="M130.4,51c-0.1-1.5,0-3,0-4.5c0-0.5,0.4-0.7,0.9-0.6c0.1,0.1,0.1,0.2,0.1,0.3c0,1.3,0,2.7,0,4
		c0,0.6,0,1.2,0,1.8c0,0.2,0,0.3-0.3,0.3c-0.3,0-0.5,0-0.8,0c-0.1,0-0.2,0-0.3-0.2c-0.3-0.7-0.7-1.4-1-2c-0.4-0.8-0.8-1.6-1.2-2.5
		c0-0.1-0.1-0.2-0.2-0.4c0,0.3,0,0.5,0,0.8c0,1.4,0,2.7,0,4.1c0,0.2-0.1,0.2-0.2,0.2c-0.2,0-0.4,0-0.6,0c-0.2,0-0.2,0-0.2-0.2
		c0-0.7,0-1.4,0-2c0-1.3,0-2.6,0-3.9c0-0.2,0-0.2,0.2-0.3c0.3,0,0.5,0,0.8,0c0.2,0,0.3,0.1,0.4,0.3c0.6,1.3,1.4,2.6,2,4
		C130.1,50.5,130.3,50.8,130.4,51z"/>
	<path class="st1" d="M114,49.6c0,0.8,0,1.7,0,2.5c0,0.2,0,0.3-0.2,0.2c-0.3,0-0.6,0.1-0.7-0.1c-0.1-0.1,0-0.5,0-0.7
		c0-1.5,0-3,0-4.5c0-0.2-0.1-0.3-0.3-0.2c-0.4,0.1-0.8,0-1.2,0c-0.4,0-0.2-0.3-0.2-0.5c0-0.1-0.1-0.4,0.2-0.4c1.1,0,2.1,0,3.2,0
		c0.2,0,0.5,0,0.7,0c0.2,0,0.2,0.1,0.2,0.2c0.1,0.5-0.1,0.7-0.6,0.7c-0.3,0-0.5,0-0.8,0c-0.2-0.1-0.3,0-0.3,0.2
		C114,47.9,114,48.7,114,49.6z"/>
	<path class="st1" d="M62.5,48.9c0,0.8,0,1.5,0,2.3c0,0.2,0,0.3,0.3,0.3c0.7,0,1.4,0,2.2,0c0.2,0,0.2,0.1,0.2,0.2
		c0,0.4-0.2,0.7-0.7,0.7c-0.8,0-1.5,0-2.3,0c-0.6,0-0.8-0.2-0.8-0.8c0-1.5,0-3.1,0-4.6c0-0.2,0-0.3,0-0.5c0-0.5,0-0.5,0.3-0.5
		c0.7,0,0.8,0.2,0.8,0.6C62.5,47.3,62.5,48.1,62.5,48.9z"/>
	<path class="st1" d="M100.5,48.9c0-0.9,0-1.8,0-2.7c0-0.3,0.1-0.4,0.3-0.3c0,0,0.1,0,0.1,0c0.5,0,0.6,0.2,0.6,0.7
		c0,1.5,0,2.9,0,4.4c0,0.5,0,0.5,0.5,0.5c0.7,0,1.3,0,2,0c0.2,0,0.2,0.1,0.2,0.3c-0.1,0.5-0.3,0.6-0.8,0.6c-0.7,0-1.5,0-2.2,0
		c-0.5,0-0.7-0.2-0.7-0.7C100.5,50.7,100.5,49.8,100.5,48.9z"/>
	<path class="st1" d="M117.1,49.1c0-1,0-1.9,0-2.9c0-0.2,0.1-0.3,0.3-0.3c0.7,0,0.7,0,0.7,0.7c0,1.8,0,3.6,0,5.4
		c0,0.2-0.1,0.3-0.3,0.3c-0.2,0-0.6,0.1-0.7-0.1c-0.1-0.1,0-0.5,0-0.7C117.1,50.8,117.1,49.9,117.1,49.1z"/>
	<path class="st0" d="M46.6,26.3c-0.1-0.7-0.2-1.5-0.4-2.2c-0.2-0.9-0.5-1.8-0.9-2.7c-0.5-1.4-1.2-2.8-2.1-4.1c-0.7-1-1.4-2-2.2-2.9
		c-0.9-1-1.8-1.9-2.9-2.7c-0.8-0.6-1.7-1.2-2.6-1.7c-1.1-0.6-2.2-1.1-3.4-1.6c-1.2-0.4-2.5-0.8-3.7-1C27.7,7.2,26.8,7.1,26,7
		c-0.1,0-0.2,0-0.2-0.1c-0.8,0-1.6,0-2.4,0c-0.4,0-0.9,0-1.3,0.1c-1.8,0.2-3.5,0.6-5.2,1.2c-3.1,1.1-5.8,2.9-8.2,5.2
		c-0.5,0.5-1,1-1.5,1.6c-1.1,1.4-2.1,2.8-2.9,4.4c-0.5,1.1-1,2.2-1.3,3.4c-0.4,1.2-0.6,2.4-0.8,3.7c-0.1,0.4,0,0.9-0.1,1.3
		c0,1,0,2,0,3.1c0.1,0,0.1,0.1,0.1,0.1c0,0.6,0.1,1.1,0.2,1.7c0.2,1.1,0.4,2.2,0.8,3.3c0.5,1.7,1.2,3.2,2.1,4.7
		c0.8,1.4,1.7,2.6,2.8,3.8c0.7,0.8,1.5,1.6,2.4,2.2c0.9,0.7,1.9,1.4,2.9,2c1.2,0.7,2.4,1.2,3.6,1.7c1.2,0.4,2.4,0.7,3.7,1
		c0.9,0.2,1.8,0.3,2.7,0.3c0.5,0,1.1,0,1.6,0c0.4,0,0.8,0,1.3,0c0.9-0.1,1.8-0.2,2.7-0.4c1.9-0.4,3.6-1,5.3-1.8
		c1.5-0.7,2.9-1.6,4.3-2.7c1-0.8,1.9-1.7,2.8-2.7c0.7-0.9,1.4-1.8,2-2.7c0.9-1.4,1.6-2.9,2.2-4.5c0.4-1.2,0.7-2.5,1-3.7
		c0.2-1,0.3-1.9,0.3-2.9C46.9,28.8,46.8,27.5,46.6,26.3z M18.2,40.3c-1-0.1-1.8-0.4-2.6-1c-0.7-0.5-1.3-1.1-1.8-1.9
		c-0.4-0.6-0.5-1.3-0.7-2c-0.3-1.3-0.7-2.6-1-3.9c0-0.1,0-0.2-0.1-0.3c1,0,2,0,2.9,0c1,0,2,0,3,0c0.2,0,0.3,0.1,0.3,0.3
		c0.2,0.9,0.5,1.9,0.7,2.8c0.4,1.3,0.7,2.7,1.1,4c0.2,0.7,0.4,1.4,0.6,2.1C19.9,40.4,19,40.4,18.2,40.3z M28.8,40.4
		c-1,0-2.1,0.1-3.1-0.2c-0.8-0.2-1.6-0.6-2.2-1.1c-1.1-0.9-1.7-2-2-3.4c-0.3-1.2-0.6-2.4-1-3.6c-0.3-1.1-0.6-2.3-0.9-3.4
		c-0.3-1.2-0.6-2.4-1-3.6c-0.1-0.3-0.2-0.6-0.2-0.9c0.8,0,1.6,0,2.3,0c1.6,0.1,2.8,0.8,3.9,2c0.7,0.8,1,1.7,1.3,2.7
		c0.3,1.3,0.7,2.6,1,3.9c0.6,2.1,1.2,4.3,1.7,6.4c0.1,0.3,0.2,0.7,0.3,1C29,40.4,28.9,40.4,28.8,40.4z M36.8,40.4c-0.7,0-1.3,0-2,0
		c-1.1-0.1-2.1-0.4-3-1.1C31,38.7,30.5,38,30,37.1c-0.3-0.7-0.5-1.4-0.7-2.1c-0.4-1.3-0.7-2.6-1-3.9c-0.3-1.2-0.6-2.5-1-3.7
		c-0.4-1.4-0.8-2.8-1.1-4.2c-0.3-1.2-0.7-2.5-1-3.7c-0.2-0.7-0.4-1.4-0.6-2.1c0.7,0,1.5,0,2.2,0c1.6,0.1,3,0.7,4,2
		c0.6,0.7,1,1.6,1.2,2.5c0.3,1.4,0.7,2.8,1.1,4.2c0.3,1.2,0.7,2.5,1,3.7c0.4,1.3,0.7,2.7,1.1,4c0.3,1.2,0.6,2.3,0.9,3.5
		c0.3,1,0.5,1.9,0.8,2.9C37.1,40.4,37,40.4,36.8,40.4z"/>
	<path class="st1" d="M71.1,47.7c-0.5-1.6-1.6-2-3-1.8c-0.9,0.1-1.5,0.7-1.8,1.6c-0.3,0.9-0.3,1.8-0.2,2.8c0.2,0.7,0.5,1.4,1.1,1.8
		c0.3,0.2,0.6,0.3,1,0.4c0.3,0,0.5,0,0.8,0c0,0,0,0,0,0c1.1-0.2,1.7-0.9,2-1.9C71.3,49.6,71.3,48.6,71.1,47.7z M70.2,49.2
		c-0.1,0.6-0.1,1.3-0.5,1.9c-0.5,0.8-1.7,0.7-2.2,0c-0.2-0.4-0.4-0.9-0.4-1.4c0-0.7,0-1.3,0.2-1.9c0.2-0.6,0.6-0.9,1.2-1
		c0.5-0.1,1,0.3,1.2,0.8c0.2,0.3,0.3,0.7,0.3,1.1C70.1,48.8,70.2,49,70.2,49.2z"/>
	<path class="st1" d="M98.6,47.7c-0.5-1.6-1.6-2-2.9-1.8c-0.9,0.1-1.5,0.7-1.8,1.6c-0.3,0.9-0.3,1.9-0.1,2.8
		c0.2,0.9,0.6,1.6,1.5,1.9c0.2,0.1,0.4,0.1,0.6,0.2c0.2,0,0.5,0,0.7,0c0,0,0,0,0.1,0c1-0.1,1.6-0.7,1.9-1.6
		C98.9,49.8,98.9,48.7,98.6,47.7z M97.4,50.7c-0.2,0.5-0.7,0.9-1.3,0.9c-0.6,0-1-0.3-1.2-0.8c-0.4-1.1-0.5-2.3,0.1-3.4
		c0.2-0.5,0.6-0.7,1.1-0.7c0.5,0,0.9,0.2,1.2,0.7c0.2,0.4,0.3,0.9,0.3,1.4C97.7,49.4,97.7,50,97.4,50.7z"/>
	<path class="st1" d="M124.9,48.3c-0.1-0.6-0.3-1.2-0.7-1.7c-0.5-0.6-1.1-0.8-1.9-0.7c-1,0-1.7,0.5-2.1,1.3
		c-0.6,1.2-0.5,2.5-0.1,3.7c0.2,0.6,0.7,1.1,1.3,1.3c0.2,0.1,0.4,0,0.6,0.1c0.2,0,0.5,0,0.7,0c0.2-0.1,0.4-0.1,0.6-0.2
		c0.8-0.4,1.2-1,1.5-1.8C125,49.7,125,49,124.9,48.3z M123.4,51.1c-0.4,0.6-1.4,0.7-1.9,0.2c-0.4-0.4-0.5-0.8-0.6-1.3
		c-0.1-0.7-0.1-1.4,0.1-2.1c0.1-0.5,0.3-0.9,0.8-1.1c0.8-0.3,1.5,0.1,1.8,0.8c0.2,0.5,0.2,1,0.2,1.4
		C123.9,49.8,123.8,50.5,123.4,51.1z"/>
	<path class="st0" d="M148,37C148,37,148,37,148,37c-0.8-0.9-1-2-1-3.1c0-7.4,0-14.8,0-22.2c0-0.8,0-1.5-0.1-2.3
		c-0.1-0.5-0.3-1.1-0.7-1.5c-0.5-0.5-1.2-0.7-1.9-0.7c-0.9,0-1.7,0-2.6,0c-0.3,0-0.5,0.2-0.5,0.5c0,3.4,0,6.9,0,10.3
		c0,0.2,0,0.3,0,0.5c-0.4-0.2-0.8-0.4-1.2-0.5c-1-0.4-2-0.6-3.1-0.7c-0.5,0-0.9,0-1.4,0.1c-0.7,0.1-1.3,0.3-2,0.6
		c-1.1,0.5-2.1,1.2-2.9,2.2c-0.8,0.9-1.3,1.9-1.8,3c-0.4,1-0.6,1.9-0.8,3c-0.1,0.7-0.2,1.3-0.2,2c0,0.9,0,1.7,0,2.6
		c0,0.6,0.1,1.1,0.2,1.7c0.2,1,0.4,2,0.8,3c0.5,1.3,1.3,2.6,2.4,3.5c1,0.9,2.2,1.3,3.6,1.5c0.9,0.1,1.9,0.1,2.8-0.2
		c1.2-0.3,2.2-0.8,3.2-1.6c0.4-0.3,0.8-0.7,1.1-1c0.2,0.3,0.4,0.6,0.6,0.9c0.4,0.5,1,0.9,1.6,1.2c0.5,0.3,1,0.4,1.6,0.5
		c0.2,0,0.4,0.1,0.6-0.1c0.8-0.7,1.3-1.5,1.7-2.5C148.2,37.4,148.3,37.2,148,37z M140.9,34c-0.8,0.8-1.6,1.4-2.7,1.7
		c-0.8,0.2-1.6,0.2-2.3-0.4c-0.6-0.5-1-1.1-1.2-1.8c-0.3-0.9-0.5-1.8-0.6-2.7c-0.1-0.9-0.1-1.9,0-2.8c0.1-1.5,0.3-3,1.1-4.3
		c0.6-1.1,1.4-1.7,2.7-1.7c0.7,0,1.3,0.2,2,0.5c0.4,0.2,0.9,0.4,1.3,0.7c0.2,0.1,0.2,0.2,0.2,0.4c0,1.7,0,3.3,0,5c0,1.6,0,3.1,0,4.7
		C141.3,33.4,141.1,33.7,140.9,34z"/>
	<path class="st0" d="M106,37.1c-0.8-0.7-1.1-1.7-1.1-2.7c0-3.2,0-6.4,0-9.6c0-0.4-0.1-0.9-0.1-1.3c-0.1-1-0.4-1.9-0.8-2.7
		c-0.7-1.3-1.7-2.2-3.1-2.8c-1.3-0.5-2.6-0.7-4-0.7c-1,0-2,0.1-3,0.3c-0.9,0.1-1.8,0.3-2.7,0.5c-1.2,0.3-2.3,0.6-3.5,1.1
		c-0.2,0.1-0.3,0.2-0.3,0.5c0.1,0.8,0.3,1.5,0.6,2.2c0.2,0.6,0.5,1.1,0.9,1.5c0.1,0.1,0.1,0.1,0.2,0.1c0.6-0.2,1.1-0.4,1.7-0.6
		c1.4-0.4,2.8-0.8,4.3-0.9c0.6,0,1.1,0,1.7,0.1c1.2,0.2,1.8,0.9,2.1,2.1c0.2,0.8,0.1,1.5,0.1,2.3c-0.7-0.1-1.4-0.1-2.1-0.1
		c-1,0-2,0-3.1,0.1c-0.8,0.1-1.5,0.2-2.3,0.5c-1.4,0.5-2.5,1.2-3.4,2.3c-0.9,1.2-1.4,2.5-1.5,4c0,0.7,0,1.3,0.1,2
		c0.3,1.5,1,2.9,2.2,3.9c1,0.8,2.2,1.3,3.5,1.4c1.4,0.1,2.8,0,4.1-0.6c1.1-0.5,2.1-1.1,3-1.9c0.3-0.2,0.3-0.3,0.5,0
		c0,0.1,0.1,0.1,0.1,0.2c0.5,0.6,1.1,1.1,1.7,1.4c0.6,0.3,1.2,0.4,1.8,0.5c0.2,0,0.4,0.1,0.5-0.1c0.8-0.7,1.3-1.6,1.7-2.6
		C106.1,37.4,106.2,37.2,106,37.1z M98.7,34.5c-0.5,0.5-1.1,0.8-1.8,1.1c-0.8,0.3-1.6,0.6-2.4,0.4c-1.1-0.1-1.7-0.7-2-1.8
		c-0.2-1-0.1-2,0.5-2.9c0.4-0.6,1-0.9,1.7-1.1c0.3-0.1,0.6-0.1,1-0.1c0.9,0,1.9,0,2.8,0.1c0.1,0,0.3,0.1,0.4,0.1
		c0.1,0,0.1,0.1,0.1,0.2c0,0.6,0,1.2,0,1.8c0,0.5,0,1,0,1.5C99.1,34.1,98.9,34.3,98.7,34.5z"/>
	<path class="st1" d="M84.1,48.1c-0.2-1.5-1.1-2.1-2.4-2.1c-0.7,0-1.3-0.1-2,0c-0.2,0-0.2,0.1-0.2,0.2c0,1,0,2,0,2.9c0,1,0,2,0,3
		c0,0.2,0,0.2,0.2,0.2c0.7,0,1.4,0,2.1,0c1.2,0,2-0.7,2.2-1.8C84.3,49.7,84.3,48.9,84.1,48.1z M83,50.5c-0.2,0.7-0.7,1.1-1.4,1
		c-0.3,0-0.6,0-0.9,0c-0.2,0-0.1-0.1-0.1-0.2c0-0.7,0-1.4,0-2.1c0-0.7,0-1.4,0-2.1c0-0.2,0-0.2,0.2-0.2c0.4,0,0.8,0,1.2,0
		c0.5,0.1,0.9,0.4,1,0.9C83.2,48.6,83.3,49.6,83,50.5z"/>
</g>
</svg>
